<?xml version="1.0" encoding="UTF-8"?>
<svg width="32px" height="32px" viewBox="0 0 32 32" version="1.1" xmlns="http://www.w3.org/2000/svg" xmlns:xlink="http://www.w3.org/1999/xlink">
    <!-- Generator: Sketch 41 (35326) - http://www.bohemiancoding.com/sketch -->
    <title>Btn Close</title>
    <desc>Created with Sketch.</desc>
    <defs></defs>
    <g id="Page-1" stroke="none" stroke-width="1" fill="none" fill-rule="evenodd">
        <g id="iPhone-SE-Copy-3" transform="translate(-276.000000, -12.000000)">
            <g id="Btn-Close" transform="translate(276.000000, 12.000000)">
                <g id="Icon-About" fill="#FFFFFF">
                    <circle id="Oval-2" cx="16" cy="16" r="16"></circle>
                </g>
                <path d="M12.4267161,19.2374768 C12.2226345,19.4972171 12,19.7384045 12,20.0723562 C12,20.5732839 12.3896104,21 12.890538,21 C13.4285714,21 13.7810761,20.4619666 14.096475,20.0723562 L16.3599258,17.2894249 L18.6233766,20.0723562 C18.9387755,20.4619666 19.2912801,21 19.8293135,21 C20.3302412,21 20.7198516,20.5732839 20.7198516,20.0723562 C20.7198516,19.7384045 20.4972171,19.4972171 20.2931354,19.2374768 L17.5658627,16.0092764 L20.2931354,12.7810761 C20.4972171,12.5213358 20.7198516,12.2801484 20.7198516,11.9461967 C20.7198516,11.445269 20.3302412,11 19.8293135,11 C19.2912801,11 18.9387755,11.5565863 18.6233766,11.9461967 L16.3599258,14.729128 L14.096475,11.9461967 C13.7810761,11.5565863 13.4285714,11 12.890538,11 C12.3896104,11 12,11.445269 12,11.9461967 C12,12.2801484 12.2226345,12.5213358 12.4267161,12.7810761 L15.1539889,16.0092764 L12.4267161,19.2374768 Z" id="x" fill="#393939"></path>
            </g>
        </g>
    </g>
</svg>