<?xml version="1.0" encoding="UTF-8"?>
<svg width="32px" height="32px" viewBox="0 0 32 32" version="1.1" xmlns="http://www.w3.org/2000/svg" xmlns:xlink="http://www.w3.org/1999/xlink">
    <!-- Generator: Sketch 41 (35326) - http://www.bohemiancoding.com/sketch -->
    <title>Icon About</title>
    <desc>Created with Sketch.</desc>
    <defs></defs>
    <g id="Page-1" stroke="none" stroke-width="1" fill="none" fill-rule="evenodd">
        <g id="iPhone-SE-Copy" transform="translate(-276.000000, -12.000000)">
            <g id="Icon-About" transform="translate(276.000000, 12.000000)">
                <circle id="Oval-2" fill="#393939" cx="16" cy="16" r="16"></circle>
                <path d="M19.528,11.344 L13.144,16.888 C12.544,17.392 12.424,17.464 12.424,18.28 L12.424,20.056 C12.424,20.824 12.76,21.256 13.624,21.256 C14.488,21.256 14.824,20.824 14.824,20.056 L14.824,18.592 L21.184,13.096 C21.832,12.52 21.928,12.448 21.928,11.584 L21.928,10.264 C21.928,9.472 21.928,9.352 21.304,8.824 L19.336,7.144 C19,6.856 18.808,6.664 18.352,6.664 C17.92,6.664 17.656,6.88 17.368,7.144 L11.008,12.568 C10.624,12.904 10.072,13.312 10.072,13.888 C10.072,14.56 10.576,15.136 11.272,15.136 C11.656,15.136 11.992,14.896 12.28,14.656 L18.352,9.448 L19.528,10.456 L19.528,11.344 Z M13.624,22.936 C12.976,22.936 12.424,23.512 12.424,24.16 C12.424,24.808 12.976,25.336 13.624,25.336 C14.296,25.336 14.824,24.808 14.824,24.16 C14.824,23.488 14.296,22.936 13.624,22.936 Z" id="?" fill="#FFFFFF"></path>
            </g>
        </g>
    </g>
</svg>