<?xml version="1.0" encoding="UTF-8"?>
<svg width="18px" height="18px" viewBox="0 0 18 18" version="1.1" xmlns="http://www.w3.org/2000/svg" xmlns:xlink="http://www.w3.org/1999/xlink">
    <!-- Generator: Sketch 41 (35326) - http://www.bohemiancoding.com/sketch -->
    <title>Plus</title>
    <desc>Created with Sketch.</desc>
    <defs></defs>
    <g id="Page-1" stroke="none" stroke-width="1" fill="none" fill-rule="evenodd">
        <g id="iPhone-SE-Copy-2" transform="translate(-284.000000, -532.000000)" fill="#FFFFFF">
            <g id="Plus" transform="translate(284.000000, 532.500000)">
                <path d="M3.38135593,6.5 C1.41242938,6.5 0.5,7.02459016 0.5,8.5 C0.5,9.97540984 1.41242938,10.5 3.38135593,10.5 L14.6186441,10.5 C16.5875706,10.5 17.5,9.97540984 17.5,8.5 C17.5,7.02459016 16.5875706,6.5 14.6186441,6.5 L3.38135593,6.5 Z" id="-" transform="translate(9.000000, 8.500000) rotate(-90.000000) translate(-9.000000, -8.500000) "></path>
                <path d="M3.38135593,6.5 C1.41242938,6.5 0.5,7.02459016 0.5,8.5 C0.5,9.97540984 1.41242938,10.5 3.38135593,10.5 L14.6186441,10.5 C16.5875706,10.5 17.5,9.97540984 17.5,8.5 C17.5,7.02459016 16.5875706,6.5 14.6186441,6.5 L3.38135593,6.5 Z" id="-"></path>
            </g>
        </g>
    </g>
</svg>