<?xml version="1.0" encoding="UTF-8"?>
<svg width="88px" height="100px" viewBox="0 0 88 100" version="1.1" xmlns="http://www.w3.org/2000/svg" xmlns:xlink="http://www.w3.org/1999/xlink">
    <!-- Generator: Sketch 41 (35326) - http://www.bohemiancoding.com/sketch -->
    <title>logo</title>
    <desc>Created with Sketch.</desc>
    <defs></defs>
    <g id="Page-1" stroke="none" stroke-width="1" fill="none" fill-rule="evenodd">
        <g id="iPhone-SE-Copy-2" transform="translate(-112.000000, -37.000000)" fill="#393939">
            <path d="M119.3425,43.112 L114.0505,43.112 C113.0785,43.112 112.2505,43.94 112.2505,44.912 L112.2505,50.996 C112.2505,51.968 113.0785,52.796 114.0505,52.796 L126.4345,52.796 L126.4345,55.28 L114.0505,55.28 C113.1145,55.28 112.2505,55.784 112.2505,57.08 C112.2505,58.376 113.1145,58.88 114.0505,58.88 L119.3425,58.88 L119.3425,63.2 C119.3425,64.352 119.8465,65 121.1425,65 C122.4385,65 122.9425,64.352 122.9425,63.2 L122.9425,58.88 L128.2345,58.88 C129.2065,58.88 130.0345,58.052 130.0345,57.08 L130.0345,50.996 C130.0345,50.024 129.2065,49.196 128.2345,49.196 L115.8505,49.196 L115.8505,46.712 L128.2345,46.712 C129.1705,46.712 130.0345,46.208 130.0345,44.912 C130.0345,43.616 129.1705,43.112 128.2345,43.112 L122.9425,43.112 L122.9425,38.792 C122.9425,37.64 122.4385,36.992 121.1425,36.992 C119.8465,36.992 119.3425,37.64 119.3425,38.792 L119.3425,43.112 Z M148.0555,61.58 C147.6595,62.084 147.2275,62.552 147.2275,63.2 C147.2275,64.172 147.9835,65 148.9555,65 C149.9995,65 150.6835,63.956 151.2955,63.2 L155.6875,57.8 L160.0795,63.2 C160.6915,63.956 161.3755,65 162.4195,65 C163.3915,65 164.1475,64.172 164.1475,63.2 C164.1475,62.552 163.7155,62.084 163.3195,61.58 L158.0275,55.316 L163.3195,49.052 C163.7155,48.548 164.1475,48.08 164.1475,47.432 C164.1475,46.46 163.3915,45.596 162.4195,45.596 C161.3755,45.596 160.6915,46.676 160.0795,47.432 L155.6875,52.832 L151.2955,47.432 C150.6835,46.676 149.9995,45.596 148.9555,45.596 C147.9835,45.596 147.2275,46.46 147.2275,47.432 C147.2275,48.08 147.6595,48.548 148.0555,49.052 L153.3475,55.316 L148.0555,61.58 Z M188.7205,49.052 L194.5165,49.052 C195.5245,49.052 196.8925,48.836 196.8925,47.324 C196.8925,45.848 195.6685,45.596 194.5165,45.596 L188.7205,45.596 L188.7205,42.068 C188.7205,40.88 188.4685,39.692 186.9925,39.692 C185.5165,39.692 185.2645,40.88 185.2645,42.068 L185.2645,45.596 L184.1485,45.596 C182.9965,45.596 181.7725,45.848 181.7725,47.324 C181.7725,48.836 183.1405,49.052 184.1485,49.052 L185.2645,49.052 L185.2645,58.448 C185.2645,60.32 185.1925,61.796 186.5245,63.272 C187.7485,64.604 189.2605,65 190.9885,65 L192.7525,65 C194.5885,65 196.2445,64.748 197.5045,63.236 C198.0805,62.552 198.6925,61.328 198.6925,60.356 C198.6925,59.384 197.9005,58.628 196.9285,58.628 C196.0645,58.628 195.4165,59.204 195.2005,60.032 C194.8405,61.436 194.1925,61.544 192.7885,61.544 L191.0245,61.544 C188.6485,61.544 188.7205,60.428 188.7205,58.484 L188.7205,49.052 Z M126.4345,97.4 C125.3905,97.4 124.6345,98.12 124.6345,99.2 C124.6345,100.172 125.3545,101 126.4345,101 L128.2345,101 C129.3145,101 130.0345,100.172 130.0345,99.2 L130.0345,74.792 C130.0345,73.856 129.2425,72.992 128.2345,72.992 L114.0505,72.992 C113.0425,72.992 112.2505,73.856 112.2505,74.792 L112.2505,84.008 C112.2505,84.944 113.0425,85.808 114.0505,85.808 L126.4345,85.808 L126.4345,97.4 Z M115.8505,82.208 L115.8505,76.592 L126.4345,76.592 L126.4345,82.208 L115.8505,82.208 Z M164.1115,79.004 C164.6875,78.356 164.7235,77.096 164.1115,76.448 C163.4635,75.764 162.0595,75.8 161.5555,76.448 L147.2635,95.096 C146.6875,95.744 146.6515,97.004 147.2635,97.652 C147.9115,98.336 149.2795,98.264 149.8195,97.652 L164.1115,79.004 Z M162.3115,101 C163.1035,101 163.6795,101 164.1835,100.316 C164.5795,99.776 164.5795,99.38 164.5795,98.696 L164.5795,96.68 C164.5795,95.996 164.5795,95.6 164.1835,95.06 C163.6795,94.376 163.1035,94.376 162.3115,94.376 L159.7195,94.376 C158.9275,94.376 158.3515,94.376 157.8475,95.06 C157.4515,95.6 157.4515,95.996 157.4515,96.68 L157.4515,98.696 C157.4515,99.38 157.4515,99.776 157.8475,100.316 C158.3515,101 158.9275,101 159.7195,101 L162.3115,101 Z M151.6555,79.616 C152.4475,79.616 153.0235,79.616 153.5275,78.932 C153.9235,78.392 153.9235,77.996 153.9235,77.312 L153.9235,75.296 C153.9235,74.612 153.9235,74.216 153.5275,73.676 C153.0235,72.992 152.4475,72.992 151.6555,72.992 L149.0635,72.992 C148.2715,72.992 147.6955,72.992 147.1915,73.676 C146.7955,74.216 146.7955,74.612 146.7955,75.296 L146.7955,77.312 C146.7955,77.996 146.7955,78.392 147.1915,78.932 C147.6955,79.616 148.2715,79.616 149.0635,79.616 L151.6555,79.616 Z M195.5245,88.796 L195.5245,99.2 C195.5245,100.352 196.0285,101 197.3245,101 C198.6205,101 199.1245,100.352 199.1245,99.2 L199.1245,74.792 C199.1245,73.64 198.6205,72.992 197.3245,72.992 C196.0285,72.992 195.5245,73.64 195.5245,74.792 L195.5245,85.196 L184.9405,85.196 L184.9405,74.792 C184.9405,73.64 184.4365,72.992 183.1405,72.992 C181.8445,72.992 181.3405,73.64 181.3405,74.792 L181.3405,99.2 C181.3405,100.352 181.8445,101 183.1405,101 C184.4365,101 184.9405,100.352 184.9405,99.2 L184.9405,88.796 L195.5245,88.796 Z M118.05025,108.992 C116.50225,108.992 116.35825,109.928 116.46625,111.656 L117.11425,124.004 C117.18625,125.264 117.47425,126.308 118.95025,126.308 C120.42625,126.308 120.71425,125.264 120.78625,124.004 L121.43425,111.656 C121.50625,109.928 121.43425,108.992 119.88625,108.992 L118.05025,108.992 Z M118.48225,131.96 C117.11425,131.96 116.46625,132.644 116.46625,134.012 L116.46625,134.948 C116.46625,136.316 117.11425,137 118.48225,137 L119.41825,137 C120.78625,137 121.43425,136.316 121.43425,134.948 L121.43425,134.012 C121.43425,132.644 120.78625,131.96 119.41825,131.96 L118.48225,131.96 Z M154.82725,132.428 C155.61925,132.428 156.19525,132.428 156.69925,131.744 C157.09525,131.204 157.09525,130.808 157.09525,130.124 L157.09525,128.108 C157.09525,127.424 157.09525,127.028 156.69925,126.488 C156.19525,125.804 155.61925,125.804 154.82725,125.804 L152.23525,125.804 C151.44325,125.804 150.86725,125.804 150.36325,126.488 C149.96725,127.028 149.96725,127.424 149.96725,128.108 L149.96725,130.124 C149.96725,130.808 149.96725,131.204 150.36325,131.744 C150.86725,132.428 151.44325,132.428 152.23525,132.428 L154.82725,132.428 Z M154.82725,120.188 C155.61925,120.188 156.19525,120.188 156.69925,119.504 C157.09525,118.964 157.09525,118.568 157.09525,117.884 L157.09525,115.868 C157.09525,115.184 157.09525,114.788 156.69925,114.248 C156.19525,113.564 155.61925,113.564 154.82725,113.564 L152.23525,113.564 C151.44325,113.564 150.86725,113.564 150.36325,114.248 C149.96725,114.788 149.96725,115.184 149.96725,115.868 L149.96725,117.884 C149.96725,118.568 149.96725,118.964 150.36325,119.504 C150.86725,120.188 151.44325,120.188 152.23525,120.188 L154.82725,120.188 Z M184.69225,134.624 C184.69225,135.812 184.94425,137 186.42025,137 C187.89625,137 188.14825,135.812 188.14825,134.624 L188.14825,121.052 L191.20825,121.052 C192.21625,121.052 193.58425,120.836 193.58425,119.324 C193.58425,117.848 192.36025,117.596 191.20825,117.596 L188.14825,117.596 L188.14825,116.912 C188.14825,114.392 189.12025,113.924 191.46025,113.924 L194.16025,113.924 C195.34825,113.924 196.53625,113.672 196.53625,112.196 C196.53625,110.576 195.20425,110.468 194.01625,110.468 L191.67625,110.468 C189.55225,110.468 188.00425,110.612 186.34825,112.196 C184.80025,113.708 184.69225,115.148 184.69225,117.128 L184.69225,117.596 L183.72025,117.596 C182.56825,117.596 181.34425,117.848 181.34425,119.324 C181.34425,120.836 182.71225,121.052 183.72025,121.052 L184.69225,121.052 L184.69225,134.624 Z" id="logo"></path>
        </g>
    </g>
</svg>